<svg height="512pt" viewBox="0 0 512 512.001" width="512pt" xmlns="http://www.w3.org/2000/svg"><path d="m512 256c0 141.386719-114.613281 256-256 256-141.382812 0-256-114.613281-256-256s114.617188-256 256-256c141.386719 0 256 114.613281 256 256zm0 0" fill="#4a7aff"/><path d="m512 256c0-1.90625-.03125-3.800781-.070312-5.699219l-98.875-98.871093-71.472657 82.546874-99.550781-99.550781-59.546875 147.769531 197.699219 197.699219c78.613281-43.695312 131.816406-127.574219 131.816406-223.894531zm0 0" fill="#0053bf"/><path d="m2.367188 290.828125c16.996093 124.90625 124.0625 221.171875 253.632812 221.171875s236.636719-96.265625 253.632812-221.171875zm0 0" fill="#a3d4ff"/><path d="m255.59375 290.828125v221.167969c.136719 0 .269531.003906.40625.003906 129.570312 0 236.636719-96.265625 253.632812-221.171875zm0 0" fill="#65b1fc"/><path d="m413.054688 151.429688s-155.59375 1.421874-159.304688 133.191406h113.707031zm0 0" fill="#bfe1ff"/><path d="m48.03125 169.789062s123.28125 6.164063 126.339844 114.832032h-89.476563zm0 0" fill="#fff"/><path d="m86.558594 122.683594s148.226562 31.285156 151.90625 161.9375h-107.582032zm0 0" fill="#dbeeff"/><path d="m153.773438 83.1875s148.785156 38.914062 153.363281 201.433594h-140.246094zm0 0" fill="#fff"/><path d="m255.59375 148.347656v136.273438h51.542969c-1.738281-61.699219-24.265625-105.570313-51.542969-136.273438zm0 0" fill="#f2f6fc"/><path d="m466.960938 208.539062s-91.511719.835938-93.695313 78.339844h66.875zm0 0" fill="#bfe1ff"/><path d="m314.464844 168.40625s87.507812 22.886719 90.199218 118.472656h-82.484374zm0 0" fill="#f2f6fc"/><path d="m59.582031 278.136719h392.417969v57.304687h-392.417969zm0 0" fill="#fe8205"/><path d="m255.59375 278.136719h196.40625v57.304687h-196.40625zm0 0" fill="#fe6a16"/></svg>